<?xml version="1.0" encoding="iso-8859-1"?>
<!-- Generator: Adobe Illustrator 19.0.0, SVG Export Plug-In . SVG Version: 6.00 Build 0)  -->
<svg version="1.1" id="Capa_1" xmlns="http://www.w3.org/2000/svg" xmlns:xlink="http://www.w3.org/1999/xlink" x="0px" y="0px"
	 viewBox="0 0 512 512" fill="#FFD700" style="enable-background:new 0 0 512 512;" xml:space="preserve">
<g>
	<g>
		<g>
			<path d="M224,64c-41.167,0-74.667,33.5-74.667,74.667c0,41.167,33.5,74.667,74.667,74.667s74.667-33.5,74.667-74.667
				C298.667,97.5,265.167,64,224,64z M224,192c-29.406,0-53.333-23.927-53.333-53.333S194.594,85.333,224,85.333
				s53.333,23.927,53.333,53.333S253.406,192,224,192z"/>
			<path d="M224,106.667c-17.646,0-32,14.354-32,32c0,17.646,14.354,32,32,32s32-14.354,32-32
				C256,121.021,241.646,106.667,224,106.667z M224,149.333c-5.885,0-10.667-4.781-10.667-10.667
				c0-5.885,4.781-10.667,10.667-10.667s10.667,4.781,10.667,10.667C234.667,144.552,229.885,149.333,224,149.333z"/>
			<path d="M437.333,266.667c5.896,0,10.667-4.771,10.667-10.667v-64h32c5.896,0,10.667-4.771,10.667-10.667v-42.667
				c0-5.896-4.771-10.667-10.667-10.667h-53.333V85.333h15.5c4.406,0,8.354-2.708,9.948-6.823c1.594-4.104,0.49-8.771-2.771-11.729
				C402,23.719,340.917,0,277.333,0c-141.156,0-256,114.844-256,256s114.844,256,256,256c63.583,0,124.667-23.719,172.01-66.781
				c3.26-2.958,4.365-7.625,2.771-11.729c-1.594-4.115-5.542-6.823-9.948-6.823h-15.5v-21.333H480
				c5.896,0,10.667-4.771,10.667-10.667v-64c0-5.896-4.771-10.667-10.667-10.667h-74.667v-53.333H437.333z M469.333,341.333V384H416
				c-5.896,0-10.667,4.771-10.667,10.667v42.667c0,4.708,3.052,8.708,7.281,10.115c-39.49,28.042-86.594,43.219-135.281,43.219
				c-82.173,0-154.496-42.539-196.428-106.667h57.762c5.896,0,10.667-4.771,10.667-10.667c0-5.896-4.771-10.667-10.667-10.667
				H68.572C61.632,349.142,55.993,334.88,51.764,320h129.569c5.896,0,10.667-4.771,10.667-10.667
				c0-5.896-4.771-10.667-10.667-10.667H46.743c-1.928-10.438-3.044-21.133-3.536-32H384V320h-53.333
				c-5.896,0-10.667,4.771-10.667,10.667c0,5.896,4.771,10.667,10.667,10.667H469.333z M43.207,245.333
				c1.56-34.448,10.462-66.957,25.365-96h48.762c5.896,0,10.667-4.771,10.667-10.667c0-5.896-4.771-10.667-10.667-10.667H80.905
				C122.837,63.872,195.16,21.333,277.333,21.333c48.688,0,95.792,15.177,135.281,43.219c-4.229,1.406-7.281,5.406-7.281,10.115V128
				h-32c-5.896,0-10.667,4.771-10.667,10.667c0,5.896,4.771,10.667,10.667,10.667h96v21.333h-32
				c-5.896,0-10.667,4.771-10.667,10.667v64H43.207z"/>
		</g>
	</g>
</g>
<g>
</g>
<g>
</g>
<g>
</g>
<g>
</g>
<g>
</g>
<g>
</g>
<g>
</g>
<g>
</g>
<g>
</g>
<g>
</g>
<g>
</g>
<g>
</g>
<g>
</g>
<g>
</g>
<g>
</g>
</svg>
